<?xml version="1.0" encoding="UTF-8" standalone="no"?>
<!-- Created with Inkscape (http://www.inkscape.org/) -->

<svg
   width="48.815628mm"
   height="67.733772mm"
   viewBox="0 0 48.815628 67.733772"
   version="1.1"
   id="svg2089"
   inkscape:version="1.2.2 (b0a8486541, 2022-12-01)"
   sodipodi:docname="missingboxart.svg"
   xmlns:inkscape="http://www.inkscape.org/namespaces/inkscape"
   xmlns:sodipodi="http://sodipodi.sourceforge.net/DTD/sodipodi-0.dtd"
   xmlns="http://www.w3.org/2000/svg"
   xmlns:svg="http://www.w3.org/2000/svg">
  <sodipodi:namedview
     id="namedview2091"
     pagecolor="#ffffff"
     bordercolor="#666666"
     borderopacity="1.0"
     inkscape:showpageshadow="2"
     inkscape:pageopacity="0.0"
     inkscape:pagecheckerboard="0"
     inkscape:deskcolor="#d1d1d1"
     inkscape:document-units="mm"
     showgrid="false"
     inkscape:zoom="0.71446409"
     inkscape:cx="-86.078505"
     inkscape:cy="240.04006"
     inkscape:window-width="1920"
     inkscape:window-height="977"
     inkscape:window-x="0"
     inkscape:window-y="30"
     inkscape:window-maximized="1"
     inkscape:current-layer="layer1" />
  <defs
     id="defs2086" />
  <g
     inkscape:label="Layer 1"
     inkscape:groupmode="layer"
     id="layer1"
     transform="translate(-79.653283,-25.75531)">
    <g
       id="g1966"
       transform="translate(-0.0925782,-94.08867)">
      <path
         style="fill:#fdfdfd;stroke-width:0.264583"
         d="M 104.21978,187.57775 H 79.878113 v -33.86667 -33.86666 h 24.341667 24.34167 v 33.86666 33.86667 z"
         id="path1982" />
      <path
         style="fill:#cecece;stroke-width:0.264583"
         d="M 104.21978,187.57775 H 79.878113 v -33.86667 -33.86666 h 24.341667 24.34167 v 33.86666 33.86667 z m -8.256008,-25.92917 h 0.99606 l 1.668905,-1.98437 1.668903,-1.98438 h 3.78985 3.78985 l 1.6689,1.98438 1.6689,1.98437 h 0.77057 0.77057 l 0.91041,-0.56266 0.91041,-0.56266 0.2453,-0.64519 0.2453,-0.64518 -0.002,-4.14997 -0.002,-4.14996 -0.28953,-1.05833 -0.28952,-1.05834 -1.23218,-1.19562 -1.23218,-1.19561 -1.0872,-0.32574 -1.08698,-0.32573 h -5.82302 -5.823016 l -1.157745,0.40821 -1.157744,0.40822 -0.989993,0.96625 -0.989993,0.96626 -0.416686,1.09107 -0.416687,1.09108 0.08376,4.70051 0.08376,4.70051 0.86407,0.77144 0.86407,0.77144 z m 13.206198,-6.92945 -0.68126,0.082 -0.29169,-0.54502 -0.29169,-0.54503 0.2832,-0.52916 0.2832,-0.52917 h 0.50096 0.50096 l 0.40445,0.40445 0.40444,0.40445 -0.21565,0.58774 -0.21565,0.58774 z m -9.987175,-0.26829 -0.67136,0.0783 -0.188536,-0.18854 -0.188536,-0.18853 v -0.88195 -0.88194 h -0.943616 -0.943616 l 0.08372,-0.72761 0.08372,-0.7276 0.844295,-0.0817 0.844296,-0.0817 0.08175,-0.8443 0.08175,-0.84429 h 0.79375 0.79375 l 0.08175,0.84429 0.08175,0.8443 0.84429,0.0817 0.8443,0.0817 0.0837,0.7276 0.0837,0.72761 h -0.92765 -0.92764 l -0.08212,0.99219 -0.08212,0.99218 z m 7.826805,-1.79809 h -0.58496 l -0.17639,-0.17639 -0.17639,-0.17639 v -0.60805 -0.60805 l 0.51,-0.27294 0.51,-0.27295 0.40597,0.15579 0.40597,0.15578 0.16423,0.51742 0.16422,0.51743 -0.31884,0.38417 -0.31884,0.38418 z m 4.33128,-0.0528 -0.6841,0.0795 -0.32994,-0.39756 -0.32995,-0.39755 0.16423,-0.51743 0.16422,-0.51742 0.40597,-0.15578 0.40597,-0.15579 0.52586,0.28143 0.52585,0.28143 -0.082,0.70981 -0.082,0.70981 z m -2.22631,-1.80742 h -0.26458 l -0.29106,-0.19438 -0.29105,-0.19439 -0.13622,-0.39687 -0.13621,-0.39688 0.23814,-0.46302 0.23814,-0.46302 h 0.64284 0.64284 l 0.23814,0.46302 0.23814,0.46302 -0.13621,0.39688 -0.13621,0.39687 -0.29106,0.19439 -0.29105,0.19438 z"
         id="path1980" />
      <path
         style="fill:#a9a9a9;stroke-width:0.264583"
         d="M 104.21978,187.57775 H 79.878113 v -33.86667 -33.86666 h 24.341667 24.34167 v 33.86666 33.86667 z m -7.882062,-25.68844 0.452314,0.0239 0.65779,-0.7094 0.657791,-0.7094 1.138854,-1.39442 1.138853,-1.39442 3.62242,-0.0129 3.62242,-0.0129 1.3234,1.52136 1.32339,1.52135 0.49317,0.6272 0.49318,0.62721 1.10166,-0.18613 1.10166,-0.18612 0.66599,-0.52387 0.666,-0.52388 0.20169,-0.77074 0.20169,-0.77073 -0.13229,-4.70271 -0.13229,-4.70271 -0.72964,-1.12244 -0.72964,-1.12245 -1.12245,-0.72963 -1.12244,-0.72964 h -7.16307 -7.163076 l -1.102898,0.72986 -1.102898,0.72986 -0.729863,1.1019 -0.729863,1.10189 -0.08106,5.1912 -0.08106,5.1912 0.560731,0.71285 0.560731,0.71286 0.84325,0.24397 0.84325,0.24397 0.452313,0.0239 z m 12.756332,-7.11989 h -0.31156 l -0.31883,-0.38417 -0.31883,-0.38416 0.088,-0.44737 0.088,-0.44737 0.44085,-0.27761 0.44084,-0.27759 0.41905,0.34778 0.41905,0.34778 v 0.44385 0.44386 l -0.3175,0.3175 -0.3175,0.3175 z m -10.033645,-0.52917 h -0.661458 v -0.92604 -0.92604 h -0.926042 -0.926042 v -0.6447 -0.64469 l 0.859896,-0.0829 0.859896,-0.0829 0.08291,-0.8599 0.08291,-0.85989 h 0.380111 0.380112 l 0.198437,-0.0104 0.198438,-0.0104 0.132291,0.87031 0.132292,0.87031 0.859894,0.0829 0.8599,0.0829 v 0.64469 0.64469 h -0.92605 -0.926036 v 0.92605 0.92604 h -0.661458 z m 8.092875,-1.5875 h -0.48746 l -0.34778,-0.41905 -0.34778,-0.41906 0.2776,-0.44084 0.2776,-0.44084 0.48332,-0.0949 0.48332,-0.0949 0.33796,0.46219 0.33797,0.4622 -0.26364,0.49261 -0.26365,0.49262 z m 4.00269,-0.0501 -0.55039,0.0822 -0.30084,-0.56213 -0.30085,-0.56214 0.31534,-0.37996 0.31534,-0.37996 h 0.46438 0.46437 l 0.34778,0.41905 0.34779,0.41906 -0.27627,0.44084 -0.27626,0.44084 z m -1.60797,-2.08614 -0.49262,0.26365 -0.4622,-0.33797 -0.46219,-0.33797 0.0949,-0.48331 0.0949,-0.48332 0.44085,-0.27761 0.44084,-0.27759 0.41905,0.34778 0.41905,0.34778 v 0.48746 0.48746 z"
         id="path1978" />
      <path
         style="fill:#9a9a9a;stroke-width:0.264583"
         d="m 128.29686,167.20483 h -0.26458 v -0.26458 -0.26458 h -0.25732 -0.25732 l -2.32237,-1.5421 -2.32236,-1.54209 -1.5875,-1.0063 -1.5875,-1.00629 -0.52917,-0.36256 -0.52917,-0.36256 -1.45521,-0.95009 -1.4552,-0.95008 -0.33073,-0.42287 -0.33073,-0.42287 v -3.92668 -3.92667 l -0.41091,-0.98369 -0.41092,-0.98369 -0.71356,-0.75184 -0.71357,-0.75184 -1.05833,-0.57108 -1.05834,-0.57108 h -6.61458 -6.614585 l -1.058333,0.51218 -1.058334,0.51217 -0.218104,-0.0557 -0.218104,-0.0557 0.145719,0.23577 0.145719,0.23578 -0.560428,0.49838 -0.560428,0.49838 -0.621373,1.32292 -0.621373,1.32292 -0.0026,3.9109 -0.0026,3.91091 -0.463021,0.17084 -0.463021,0.17083 -0.132291,0.15159 -0.132292,0.15159 -1.233878,0.8599 -1.233879,0.85989 H 88.918857 88.65343 l -0.08819,0.20341 -0.08819,0.20342 -1.852083,1.1276 -1.852084,1.12761 -1.5875,1.0486 -1.5875,1.04859 -0.661458,0.32698 -0.661458,0.32698 -0.194386,0.26997 -0.19437,0.26997 -0.0041,-23.48177 -0.0041,-23.48177 h 24.341669 24.34167 v 23.68021 23.6802 z m -18.7261,-12.73174 -0.46985,0.25146 -0.45619,-0.2553 -0.45619,-0.25529 v -0.50288 -0.50287 l 0.45619,-0.25529 0.45619,-0.2553 0.46985,0.25146 0.46985,0.25146 v 0.51054 0.51055 z m -10.510355,-0.23284 h -0.661458 v -0.92604 -0.92604 h -0.926042 -0.926042 v -0.66146 -0.66146 h 0.926042 0.926042 v -0.92604 -0.92604 h 0.661458 0.661458 v 0.92604 0.92604 h 0.926037 0.92605 v 0.66146 0.66146 h -0.92605 -0.926037 v 0.92604 0.92604 z m 8.153835,-1.63759 -0.57741,0.0822 -0.27223,-0.50867 -0.27223,-0.50867 0.33796,-0.4622 0.33797,-0.46219 0.51168,0.0985 0.51168,0.0985 v 0.79012 0.79013 z m 3.86709,0.0501 h -0.52816 l -0.14636,-0.38142 -0.14637,-0.38142 0.0916,-0.47543 0.0916,-0.47544 0.50864,-0.098 0.50864,-0.0979 0.33796,0.46219 0.33797,0.4622 -0.26364,0.49261 -0.26365,0.49262 z m -1.96676,-2.11666 h -0.67806 l -0.1661,-0.43284 -0.16609,-0.43284 0.26938,-0.42706 0.26938,-0.42706 h 0.47149 0.4715 l 0.26938,0.42706 0.26938,0.42706 -0.1661,0.43284 -0.16609,0.43284 z"
         id="path1976" />
      <path
         style="fill:#888888;stroke-width:0.264583"
         d="m 128.36301,166.92507 -0.19844,-0.0152 -1.71979,-1.14273 -1.71979,-1.14273 -3.96875,-2.57157 -3.96875,-2.57157 -0.66146,-0.46522 -0.66146,-0.46523 -0.1387,-4.20582 -0.1387,-4.20582 -0.56974,-1.07638 -0.56975,-1.07639 -1.05876,-0.95653 -1.05877,-0.95653 -1.01091,-0.28072 -1.01092,-0.2807 -5.97979,-0.001 -5.979786,-0.001 -0.842929,0.29385 -0.84293,0.29385 -0.98249,-0.64693 -0.98249,-0.64692 -5.820834,-3.83462 -5.820833,-3.83461 -1.389062,-0.88395 -1.389063,-0.88395 v -7.76065 -7.76065 h 24.341667 24.34167 v 23.54792 23.54791 l -0.19844,-0.0152 z m -18.79225,-12.45198 -0.46985,0.25146 -0.45619,-0.2553 -0.45619,-0.25529 v -0.50671 -0.50671 l 0.51079,-0.27337 0.5108,-0.27337 0.41524,0.41525 0.41525,0.41525 v 0.36867 0.36866 z m -10.510355,-0.23284 h -0.661458 v -0.92604 -0.92604 h -0.926042 -0.926042 v -0.66146 -0.66146 h 0.926042 0.926042 v -0.92604 -0.92604 h 0.661458 0.661458 v 0.92604 0.92604 h 0.926037 0.92605 v 0.66146 0.66146 h -0.92605 -0.926037 v 0.92604 0.92604 z m 7.827665,-1.5875 h -0.19885 l -0.17638,-0.17639 -0.17639,-0.17639 v -0.58905 -0.58905 l 0.39687,-0.1523 0.39688,-0.15229 0.39687,0.15229 0.39688,0.1523 v 0.60484 0.60484 l -0.41852,0.1606 -0.41851,0.1606 z m 4.10986,0 h -0.0577 l -0.3175,-0.3175 -0.3175,-0.3175 v -0.44794 -0.44794 l 0.39687,-0.1523 0.39688,-0.15229 0.39687,0.15229 0.39688,0.1523 v 0.60484 0.60484 l -0.41852,0.1606 -0.41851,0.1606 z m -2.04026,-2.11666 h -0.44794 l -0.1523,-0.39688 -0.15229,-0.39687 0.14444,-0.37642 0.14445,-0.37642 0.36876,-0.14151 0.36876,-0.1415 0.40453,0.40453 0.40453,0.40453 v 0.19277 0.19277 l -0.3175,0.3175 -0.3175,0.3175 z"
         id="path1974" />
      <path
         style="fill:#838383;stroke-width:0.264583"
         d="m 128.4953,166.93061 -0.0661,-0.01 -3.57188,-2.37381 -3.57187,-2.37382 -0.4086,-0.34548 -0.40859,-0.34548 -0.38516,-0.19186 -0.38515,-0.19186 -0.54346,-0.32036 -0.54346,-0.32035 -1.6221,-1.03468 -1.62211,-1.03468 -0.0834,-4.25698 -0.0834,-4.25699 -0.78562,-1.32292 -0.78561,-1.32292 0.069,-0.39687 0.0691,-0.39688 -0.20955,0.30559 -0.20955,0.30559 -0.76196,-0.60756 -0.76196,-0.60757 0.89433,-0.40459 0.89433,-0.40459 0.62143,-0.17945 0.62143,-0.17945 0.5251,-0.52509 0.52509,-0.5251 -0.0882,-0.0678 -0.0882,-0.0678 -1.47926,-1.10081 -1.47925,-1.10081 h -0.31499 -0.31499 l -0.1444,-0.37632 -0.14441,-0.37631 -1.03791,-0.4153 -1.03792,-0.41529 v -0.20398 -0.20399 l -0.51561,-0.26117 -0.51561,-0.26118 -1.53491,-0.89566 -1.53491,-0.89567 -0.13229,-0.17454 -0.13229,-0.17454 -1.77946,-1.11261 -1.77945,-1.11261 h -0.24902 -0.24902 l -0.0882,-0.21384 -0.0882,-0.21385 -1.577532,-1.04292 -1.577534,-1.04293 -0.449062,-0.26458 -0.449062,-0.26459 -1.611425,-0.92096 -1.611425,-0.92097 v -0.17826 -0.17825 l -1.521354,-0.85674 -1.521355,-0.85674 -2.267049,-1.48362 -2.26705,-1.48362 -0.511075,-0.32921 -0.511076,-0.3292 -1.322916,-0.77783 -1.322917,-0.77782 -0.264583,-0.22429 -0.264584,-0.22429 -0.965934,-0.59226 -0.965935,-0.59227 -0.150241,-0.39152 -0.15024,-0.39152 h 24.333359 24.33337 v 23.54792 23.54791 l -0.0662,-0.01 z m -0.23812,-15.20831 0.1367,-0.1367 -0.31309,-0.31309 -0.31309,-0.31309 v 0.2734 0.2734 l 0.17639,0.17639 0.17638,0.17639 z m -13.22913,-3.44426 0.0926,-0.088 -0.1744,-0.28219 -0.1744,-0.28218 h -0.2594 -0.2594 l 0.34116,0.37019 0.34117,0.37019 z m -5.9747,6.22679 h -0.35226 l -0.1523,-0.39687 -0.15229,-0.39688 0.15229,-0.39687 0.1523,-0.39687 h 0.50661 0.50661 l 0.13255,0.50685 0.13254,0.50685 -0.28689,0.2869 -0.2869,0.28689 z m -9.860653,-0.4525 -0.529167,0.13838 v -0.8853 -0.8853 l -0.992188,-0.0821 -0.992187,-0.0821 v -0.52468 -0.52468 l 0.990083,-0.16093 0.990082,-0.16094 0.153817,0.15382 0.153817,0.15382 1.237346,0.003 1.23735,0.003 v 0.52916 0.52917 l -0.99218,0.0821 -0.99219,0.0821 v -0.28056 -0.28055 h -0.305591 -0.30559 l 0.437882,0.48385 0.437882,0.48385 v 0.54363 0.54362 l -0.529166,0.13838 z m 12.360393,-1.71169 -0.3396,0.28184 -0.36938,-0.22829 -0.36938,-0.22829 -0.0618,-0.42102 -0.0618,-0.42102 0.46566,-0.24921 0.46566,-0.24921 0.30512,0.30511 0.30512,0.30512 v 0.31156 0.31156 z m -4.37747,-2.2e-4 -0.57459,0.0846 -0.0331,-0.15069 -0.0331,-0.15069 -0.0394,-0.33073 -0.0394,-0.33073 0.35041,-0.36301 0.3504,-0.363 0.37454,0.49529 0.37454,0.4953 -0.0779,0.26458 -0.0779,0.26459 z m -7.715986,-2.14218 -0.134646,0.85278 -0.287791,-0.19132 -0.287792,-0.19132 -0.154691,-0.6115 -0.154692,-0.6115 0.367609,-0.14106 0.367609,-0.14107 0.20952,0.0911 0.209521,0.0911 z m 9.953126,0.15605 -0.37904,0.14545 -0.437,-0.31954 -0.43699,-0.31953 0.18351,-0.47823 0.18351,-0.47822 0.22372,0.35291 0.22371,0.35291 0.004,-0.51593 0.004,-0.51594 0.23485,0.25135 0.23484,0.25136 0.16992,0.56398 0.16991,0.56398 -0.37904,0.14545 z"
         id="path1972" />
      <path
         style="fill:#757575;stroke-width:0.264583"
         d="m 128.4953,151.5849 -0.0661,-0.01 -0.79375,-0.65422 -0.79375,-0.65422 -2.89704,-1.78366 -2.89704,-1.78365 -2.13005,-1.37106 -2.13004,-1.37106 -0.66146,-0.55832 -0.66146,-0.55831 -1.83388,-1.19775 -1.83388,-1.19774 -1.10859,-0.61892 -1.1086,-0.61892 -1.19853,-0.88417 -1.19854,-0.88417 -1.76978,-1.05833 -1.76978,-1.05834 -2.46403,-1.62688 -2.464021,-1.62689 -0.651044,-0.35749 -0.651045,-0.35749 -1.160598,-0.77249 -1.160597,-0.7725 -1.058333,-0.68271 -1.058334,-0.68271 -0.308597,-0.26459 -0.308597,-0.26458 -1.353196,-0.79375 -1.353196,-0.79375 -2.894122,-1.85208 -2.894123,-1.85209 -1.359529,-0.79375 -1.359529,-0.79375 -0.699139,-0.58695 -0.699139,-0.58695 24.407809,-0.008 24.40782,-0.008 v 15.875 15.875 l -0.0662,-0.01 z"
         id="path1970" />
      <path
         style="fill:#5d5d5d;stroke-width:0.264583"
         d="m 128.36301,151.06491 -0.19844,-2.7e-4 -1.52414,-1.05799 -1.52414,-1.05799 h -0.11776 -0.11775 l -1.00394,-0.66631 -1.00393,-0.6663 -0.39688,-0.25789 -0.39687,-0.25788 -1.32292,-0.83698 -1.32292,-0.83698 -1.38906,-0.92864 -1.38906,-0.92864 0.001,-0.15446 0.001,-0.15446 1.65233,-1.09454 1.65233,-1.09455 2.24896,-1.4403 2.24896,-1.4403 1.92647,-1.23547 1.92647,-1.23554 h 0.12405 0.12404 v 7.67292 7.67291 l -0.19844,-2.6e-4 z"
         id="path1968" />
    </g>
  </g>
</svg>
